<svg width="19" height="19" fill="none" xmlns="http://www.w3.org/2000/svg"><path d="M9.455 1.637c2.428 0 2.716.01 3.671.053.888.04 1.368.189 1.687.313.423.163.728.362 1.044.678.32.32.515.622.678 1.044.125.32.274.803.313 1.687.043.959.053 1.246.053 3.672 0 2.429-.01 2.716-.053 3.672-.039.887-.188 1.367-.313 1.687a2.81 2.81 0 01-.678 1.043 2.8 2.8 0 01-1.044.679c-.32.124-.802.273-1.687.312-.958.043-1.246.053-3.671.053-2.43 0-2.717-.01-3.672-.053-.888-.039-1.368-.188-1.687-.312a2.811 2.811 0 01-1.044-.678 2.796 2.796 0 01-.678-1.044c-.125-.32-.274-.803-.313-1.687-.043-.96-.053-1.247-.053-3.672 0-2.43.01-2.717.053-3.672.04-.888.188-1.367.313-1.687.163-.422.362-.728.678-1.044.32-.32.621-.515 1.044-.678.32-.124.802-.274 1.687-.313.955-.042 1.243-.053 3.672-.053zm0-1.637C6.987 0 6.678.01 5.708.053c-.966.043-1.63.2-2.205.423-.6.234-1.108.543-1.612 1.051A4.454 4.454 0 00.839 3.136C.616 3.714.46 4.375.417 5.34.374 6.314.364 6.623.364 9.09s.01 2.777.053 3.746c.043.966.199 1.63.423 2.206.234.6.543 1.108 1.05 1.612a4.443 4.443 0 001.61 1.047c.578.224 1.239.38 2.205.423.969.043 1.278.053 3.746.053s2.777-.01 3.746-.053c.966-.043 1.63-.199 2.206-.423a4.443 4.443 0 001.608-1.047 4.445 4.445 0 001.048-1.609c.224-.579.38-1.24.422-2.205.043-.97.054-1.278.054-3.747 0-2.468-.01-2.777-.053-3.746-.043-.966-.2-1.63-.423-2.205a4.26 4.26 0 00-1.04-1.616 4.444 4.444 0 00-1.61-1.048C14.832.256 14.17.1 13.206.057 12.232.01 11.923 0 9.455 0z" fill="#fff"/><path d="M9.455 4.421a4.67 4.67 0 000 9.34 4.67 4.67 0 000-9.34zm0 7.699a3.03 3.03 0 110-6.06 3.03 3.03 0 010 6.06zM15.4 4.236a1.09 1.09 0 11-2.182 0 1.09 1.09 0 012.181 0z" fill="#fff"/></svg>