<svg width="19" height="16" fill="none" xmlns="http://www.w3.org/2000/svg"><path d="M5.81 15.477c6.86 0 10.613-5.684 10.613-10.612 0-.16-.004-.323-.01-.483a7.575 7.575 0 001.86-1.93c-.68.302-1.402.5-2.141.585a3.75 3.75 0 001.64-2.063 7.498 7.498 0 01-2.368.905 3.735 3.735 0 00-6.359 3.402 10.595 10.595 0 01-7.687-3.895 3.734 3.734 0 001.154 4.978 3.735 3.735 0 01-1.69-.465v.046a3.729 3.729 0 002.993 3.657 3.708 3.708 0 01-1.683.064 3.738 3.738 0 003.483 2.593 7.48 7.48 0 01-5.524 1.543 10.582 10.582 0 005.72 1.675z" fill="#fff"/></svg>