<svg width="19" height="19" fill="none" xmlns="http://www.w3.org/2000/svg"><g clip-path="url(#clip0_1_1080)"><path d="M17.29 0H1.798C1.055 0 .455.586.455 1.31v15.558c0 .724.6 1.314 1.342 1.314H17.29c.742 0 1.345-.59 1.345-1.31V1.31c0-.724-.603-1.31-1.345-1.31zM5.85 15.494h-2.7v-8.68h2.7v8.68zM4.5 5.632a1.563 1.563 0 11-.005-3.126A1.563 1.563 0 014.5 5.632zm11.45 9.862h-2.696v-4.22c0-1.004-.018-2.3-1.403-2.3-1.402 0-1.616 1.097-1.616 2.23v4.29H7.543v-8.68h2.585v1.187h.035c.36-.682 1.24-1.403 2.55-1.403 2.73 0 3.235 1.797 3.235 4.134v4.762z" fill="#fff"/></g><defs><clipPath id="clip0_1_1080"><path fill="#fff" transform="translate(.455)" d="M0 0h18.182v18.182H0z"/></clipPath></defs></svg>