<svg width="19" height="19" fill="none" xmlns="http://www.w3.org/2000/svg"><g clip-path="url(#clip0_1_1075)"><path d="M18.728 5.455S18.55 4.2 18.004 3.65c-.693-.725-1.467-.728-1.822-.771-2.543-.185-6.36-.185-6.36-.185h-.007s-3.818 0-6.36.185c-.356.043-1.13.046-1.822.77C1.086 4.2.912 5.454.912 5.454S.727 6.928.727 8.398v1.378c0 1.47.181 2.944.181 2.944s.178 1.254.721 1.804c.693.725 1.602.7 2.007.778 1.456.138 6.182.181 6.182.181s3.821-.007 6.364-.188c.355-.043 1.13-.046 1.822-.77.546-.551.724-1.805.724-1.805s.181-1.47.181-2.944V8.398c0-1.47-.181-2.943-.181-2.943zM7.94 11.449v-5.11l4.91 2.564-4.91 2.546z" fill="#fff"/></g><defs><clipPath id="clip0_1_1075"><path fill="#fff" transform="translate(.727)" d="M0 0h18.182v18.182H0z"/></clipPath></defs></svg>