<svg width="19" height="19" viewBox="0 0 19 19" fill="none" xmlns="http://www.w3.org/2000/svg">
<g clip-path="url(#clip0_1_1068)">
<path d="M18.1818 9.09091C18.1818 4.07014 14.1117 0 9.09091 0C4.07014 0 0 4.07014 0 9.09091C0 13.6284 3.3244 17.3894 7.67045 18.0714V11.7188H5.36222V9.09091H7.67045V7.08807C7.67045 4.80966 9.0277 3.55114 11.1042 3.55114C12.0985 3.55114 13.1392 3.72869 13.1392 3.72869V5.96591H11.9929C10.8636 5.96591 10.5114 6.66673 10.5114 7.38636V9.09091H13.0327L12.6296 11.7188H10.5114V18.0714C14.8574 17.3894 18.1818 13.6284 18.1818 9.09091Z" fill="white"/>
</g>
<defs>
<clipPath id="clip0_1_1068">
<rect width="18.1818" height="18.1818" fill="white"/>
</clipPath>
</defs>
</svg>
