<svg width="19" height="19" viewBox="0 0 19 19" fill="none" xmlns="http://www.w3.org/2000/svg">
<path d="M9.45456 1.63707C11.8835 1.63707 12.1712 1.64773 13.1264 1.69034C14.0142 1.7294 14.4936 1.87855 14.8132 2.00284C15.2358 2.16619 15.5412 2.36506 15.8573 2.68111C16.1769 3.00071 16.3722 3.30256 16.5355 3.72514C16.6598 4.04474 16.809 4.5277 16.848 5.41193C16.8906 6.37074 16.9013 6.65838 16.9013 9.08381C16.9013 11.5128 16.8906 11.8004 16.848 12.7557C16.809 13.6435 16.6598 14.1229 16.5355 14.4425C16.3722 14.8651 16.1733 15.1705 15.8573 15.4865C15.5377 15.8061 15.2358 16.0014 14.8132 16.1648C14.4936 16.2891 14.0107 16.4382 13.1264 16.4773C12.1676 16.5199 11.88 16.5305 9.45456 16.5305C7.02558 16.5305 6.73794 16.5199 5.78268 16.4773C4.8949 16.4382 4.41549 16.2891 4.09589 16.1648C3.67331 16.0014 3.36791 15.8026 3.05186 15.4865C2.73226 15.1669 2.53694 14.8651 2.37359 14.4425C2.2493 14.1229 2.10015 13.6399 2.06109 12.7557C2.01848 11.7969 2.00782 11.5092 2.00782 9.08381C2.00782 6.65483 2.01848 6.36719 2.06109 5.41193C2.10015 4.52415 2.2493 4.04474 2.37359 3.72514C2.53694 3.30256 2.73581 2.99716 3.05186 2.68111C3.37146 2.36151 3.67331 2.16619 4.09589 2.00284C4.41549 1.87855 4.89845 1.7294 5.78268 1.69034C6.73794 1.64773 7.02558 1.63707 9.45456 1.63707ZM9.45456 0C6.98652 0 6.67757 0.0106534 5.70811 0.053267C4.7422 0.0958807 4.07814 0.252131 3.50285 0.475852C2.90271 0.710227 2.3949 1.01918 1.89064 1.52699C1.38282 2.03125 1.07387 2.53906 0.8395 3.13565C0.615778 3.71449 0.459528 4.375 0.416915 5.34091C0.374301 6.31392 0.363647 6.62287 0.363647 9.09091C0.363647 11.5589 0.374301 11.8679 0.416915 12.8374C0.459528 13.8033 0.615778 14.4673 0.8395 15.0426C1.07387 15.6428 1.38282 16.1506 1.89064 16.6548C2.3949 17.1591 2.90271 17.4716 3.4993 17.7024C4.07814 17.9261 4.73865 18.0824 5.70456 18.125C6.67402 18.1676 6.98297 18.1783 9.45101 18.1783C11.919 18.1783 12.228 18.1676 13.1975 18.125C14.1634 18.0824 14.8274 17.9261 15.4027 17.7024C15.9993 17.4716 16.5071 17.1591 17.0114 16.6548C17.5156 16.1506 17.8281 15.6428 18.059 15.0462C18.2827 14.4673 18.4389 13.8068 18.4815 12.8409C18.5242 11.8714 18.5348 11.5625 18.5348 9.09446C18.5348 6.62642 18.5242 6.31747 18.4815 5.34801C18.4389 4.3821 18.2827 3.71804 18.059 3.14276C17.8352 2.53906 17.5263 2.03125 17.0185 1.52699C16.5142 1.02273 16.0064 0.710227 15.4098 0.479403C14.831 0.255682 14.1705 0.0994318 13.2046 0.0568182C12.2315 0.0106534 11.9226 0 9.45456 0Z" fill="white"/>
<path d="M9.45453 4.42114C6.87641 4.42114 4.78479 6.51276 4.78479 9.09089C4.78479 11.669 6.87641 13.7606 9.45453 13.7606C12.0327 13.7606 14.1243 11.669 14.1243 9.09089C14.1243 6.51276 12.0327 4.42114 9.45453 4.42114ZM9.45453 12.12C7.78195 12.12 6.42542 10.7635 6.42542 9.09089C6.42542 7.4183 7.78195 6.06177 9.45453 6.06177C11.1271 6.06177 12.4837 7.4183 12.4837 9.09089C12.4837 10.7635 11.1271 12.12 9.45453 12.12Z" fill="white"/>
<path d="M15.3991 4.23644C15.3991 4.84013 14.9091 5.32664 14.3089 5.32664C13.7053 5.32664 13.2188 4.83658 13.2188 4.23644C13.2188 3.63275 13.7088 3.14624 14.3089 3.14624C14.9091 3.14624 15.3991 3.6363 15.3991 4.23644Z" fill="white"/>
</svg>
