<svg width="19" height="19" viewBox="0 0 19 19" fill="none" xmlns="http://www.w3.org/2000/svg">
<g clip-path="url(#clip0_1_1080)">
<path d="M17.2905 0H1.79692C1.05473 0 0.45459 0.585938 0.45459 1.31037V16.8679C0.45459 17.5923 1.05473 18.1818 1.79692 18.1818H17.2905C18.0327 18.1818 18.6364 17.5923 18.6364 16.8714V1.31037C18.6364 0.585938 18.0327 0 17.2905 0ZM5.84877 15.4936H3.1499V6.81463H5.84877V15.4936ZM4.49933 5.6321C3.63286 5.6321 2.93328 4.93253 2.93328 4.0696C2.93328 3.20668 3.63286 2.5071 4.49933 2.5071C5.36226 2.5071 6.06183 3.20668 6.06183 4.0696C6.06183 4.92898 5.36226 5.6321 4.49933 5.6321ZM15.9482 15.4936H13.2529V11.2749C13.2529 10.2699 13.2351 8.97372 11.8502 8.97372C10.4475 8.97372 10.2344 10.071 10.2344 11.2038V15.4936H7.54266V6.81463H10.1279V8.00071H10.1634C10.5221 7.31889 11.4027 6.59801 12.7131 6.59801C15.4439 6.59801 15.9482 8.39489 15.9482 10.7315V15.4936Z" fill="white"/>
</g>
<defs>
<clipPath id="clip0_1_1080">
<rect width="18.1818" height="18.1818" fill="white" transform="translate(0.45459)"/>
</clipPath>
</defs>
</svg>
