<svg width="19" height="16" viewBox="0 0 19 16" fill="none" xmlns="http://www.w3.org/2000/svg">
<path d="M5.81076 15.4774C12.6701 15.4774 16.423 9.79307 16.423 4.86516C16.423 4.70536 16.4194 4.542 16.4123 4.3822C17.1424 3.85425 17.7724 3.2003 18.2728 2.45109C17.5929 2.7536 16.871 2.95116 16.1318 3.03703C16.9101 2.5705 17.4929 1.83759 17.772 0.974177C17.0398 1.40811 16.2391 1.71421 15.4042 1.87936C14.8416 1.2816 14.0978 0.885805 13.2877 0.75318C12.4776 0.620555 11.6464 0.758482 10.9226 1.14564C10.1987 1.53279 9.62261 2.14762 9.28325 2.89504C8.94389 3.64247 8.86021 4.48088 9.04513 5.28064C7.56253 5.20624 6.11211 4.8211 4.7879 4.15019C3.46369 3.47927 2.29526 2.53756 1.35834 1.38611C0.882154 2.20711 0.73644 3.17863 0.950814 4.10321C1.16519 5.02779 1.72357 5.83606 2.51246 6.36374C1.92021 6.34493 1.34092 6.18547 0.822477 5.89854V5.9447C0.821946 6.80628 1.1198 7.64146 1.66542 8.30827C2.21103 8.97508 2.97073 9.43235 3.81537 9.60237C3.26674 9.75248 2.69093 9.77435 2.13249 9.66629C2.37083 10.4073 2.83456 11.0553 3.45895 11.5201C4.08334 11.9848 4.83725 12.243 5.61545 12.2586C4.29429 13.2964 2.66229 13.8593 0.982278 13.8566C0.684342 13.8562 0.386699 13.8379 0.0909424 13.8019C1.79765 14.8969 3.78301 15.4784 5.81076 15.4774Z" fill="white"/>
</svg>
