<svg width="19" height="19" viewBox="0 0 19 19" fill="none" xmlns="http://www.w3.org/2000/svg">
<g clip-path="url(#clip0_1_1075)">
<path d="M18.728 5.45455C18.728 5.45455 18.5504 4.20099 18.0036 3.65057C17.3111 2.92614 16.537 2.92259 16.1818 2.87997C13.6392 2.69531 9.82176 2.69531 9.82176 2.69531H9.81465C9.81465 2.69531 5.99718 2.69531 3.45457 2.87997C3.09945 2.92259 2.32531 2.92614 1.63283 3.65057C1.08596 4.20099 0.911954 5.45455 0.911954 5.45455C0.911954 5.45455 0.727295 6.92827 0.727295 8.39844V9.77628C0.727295 11.2464 0.908403 12.7202 0.908403 12.7202C0.908403 12.7202 1.08596 13.9737 1.62928 14.5241C2.32176 15.2486 3.23085 15.2237 3.63568 15.3018C5.09164 15.4403 9.8182 15.483 9.8182 15.483C9.8182 15.483 13.6392 15.4759 16.1818 15.2947C16.537 15.2521 17.3111 15.2486 18.0036 14.5241C18.5504 13.9737 18.728 12.7202 18.728 12.7202C18.728 12.7202 18.9091 11.25 18.9091 9.77628V8.39844C18.9091 6.92827 18.728 5.45455 18.728 5.45455ZM7.93965 11.4489V6.33878L12.8509 8.9027L7.93965 11.4489Z" fill="white"/>
</g>
<defs>
<clipPath id="clip0_1_1075">
<rect width="18.1818" height="18.1818" fill="white" transform="translate(0.727295)"/>
</clipPath>
</defs>
</svg>
